<?xml version="1.0" encoding="iso-8859-1"?>
<!-- Generator: Adobe Illustrator 18.1.1, SVG Export Plug-In . SVG Version: 6.00 Build 0)  -->
<svg version="1.1" id="Capa_1" xmlns="http://www.w3.org/2000/svg" xmlns:xlink="http://www.w3.org/1999/xlink" x="0px" y="0px"
	 viewBox="0 0 104.778 104.778" style="enable-background:new 0 0 104.778 104.778;" xml:space="preserve">
<g>
	<path style="fill:#010002;" d="M94.759,21.767c-0.673-6.22-5.891-11.098-12.275-11.098H50.492L25.83,0.734
		C24.624,0.251,23.433,0,22.291,0c-4.295,0-7.183,3.357-7.183,8.367v4.642c-2.806,2.008-4.703,5.15-5.089,8.757
		c-1.489,2.258-2.366,4.95-2.366,7.856v60.84c0,7.906,6.41,14.315,14.315,14.315h60.84c7.906,0,14.315-6.41,14.315-14.315v-60.84
		C97.125,26.716,96.248,24.025,94.759,21.767z M16.898,11.961V8.367c0-3.998,2.115-6.578,5.393-6.578
		c0.913,0,1.879,0.204,2.87,0.601l20.543,8.278l4.438,1.789l1.353,0.544v1.245v1.059v76.799h-1.006L25.83,82.167
		c-4.924-1.986-8.933-8.095-8.933-13.618V16.273v-0.125V13.99V11.961z M59.812,15.31v8.346l3.482-2.928l3.482,2.928V15.31v-1.056
		h15.711c2.158,0,4.105,0.812,5.644,2.097c1.936,1.628,3.189,4.026,3.189,6.739v60.182c0,4.871-3.962,8.836-8.833,8.836H53.284
		V15.31v-1.056h6.528V15.31z M46.233,37.893l-11.077-4.466v-1.818l11.077,4.466V37.893z M46.233,44.829l-11.077-4.466v-1.818
		l11.077,4.459V44.829z M46.233,51.825L24.084,42.9v-1.818l22.15,8.926C46.233,50.007,46.233,51.825,46.233,51.825z M46.233,58.758
		l-22.15-8.926v-1.825l22.15,8.926C46.233,56.932,46.233,58.758,46.233,58.758z M46.233,65.754l-22.15-8.926v-1.818l22.15,8.926
		C46.233,63.936,46.233,65.754,46.233,65.754z M25.981,37.195l0.576-1.768l3.335,1.342l0.598,2.244l0.97,0.39l0.973,0.39
		l-3.11-11.091l-1.063-0.429l-1.063-0.426l-3.11,8.579l0.952,0.372L25.981,37.195z M28.232,30.463v-0.007h0.004L28.232,30.463
		l1.167,4.416l-2.33-0.948L28.232,30.463z M70.655,56.481l-1.038-8.743v-4.423h1.965h1.965v4.423l-1.024,8.74h-0.948h-0.92V56.481z
		 M69.682,57.891h3.801v3.579h-3.801V57.891z M71.582,66.245c-7.641,0-13.854-6.213-13.854-13.854s6.213-13.854,13.854-13.854
		s13.854,6.213,13.854,13.854S79.223,66.245,71.582,66.245z M71.582,40.556c-6.524,0-11.835,5.3-11.835,11.835
		c0,6.521,5.307,11.835,11.835,11.835c6.521,0,11.832-5.307,11.832-11.835C83.414,45.863,78.107,40.556,71.582,40.556z"/>
</g>
<g>
</g>
<g>
</g>
<g>
</g>
<g>
</g>
<g>
</g>
<g>
</g>
<g>
</g>
<g>
</g>
<g>
</g>
<g>
</g>
<g>
</g>
<g>
</g>
<g>
</g>
<g>
</g>
<g>
</g>
</svg>
